PathFileType	3	(X/Y/Z)	RCH0000002 BBF 06.c3d
DataRate	CameraRate	NumFrames	NumMarkers	Units	OrigDataRate	OrigDataStartFrame	OrigNumFrames
100.0	100.0	5	23	mm	100.0	465	380
Frame#	Time	LASI			RASI			LPAT			LKNE			LANK			LMED			LTOE			RPAT			RKNE			RANK			RTOE			RMED			RHEE			RPSI			T2			T10			LPSI			LHEE			MAN			RTHI			LTHI			RTIB			LTIB			
		X1	Y1	Z1	X2	Y2	Z2	X3	Y3	Z3	X4	Y4	Z4	X5	Y5	Z5	X6	Y6	Z6	X7	Y7	Z7	X8	Y8	Z8	X9	Y9	Z9	X10	Y10	Z10	X11	Y11	Z11	X12	Y12	Z12	X13	Y13	Z13	X14	Y14	Z14	X15	Y15	Z15	X16	Y16	Z16	X17	Y17	Z17	X18	Y18	Z18	X19	Y19	Z19	X20	Y20	Z20	X21	Y21	Z21	X22	Y22	Z22	X23	Y23	Z23	

465	4.640	250.77841	102.29755	654.07979	303.33681	-65.96446	644.02955	202.52541	50.91960	373.74512	146.08673	103.50299	344.06308	59.89777	80.26221	77.99687	71.57672	13.99585	101.88100	112.62072	47.72728	70.44419	418.41153	-4.05296	416.94413	387.26348	-58.22844	367.22471	339.58369	-79.51657	105.22616	379.71899	-40.25974	91.99544	322.32574	-11.90101	110.95683	291.87570	-52.40970	135.55108	179.02873	-51.97930	691.57566	163.22635	10.76228	980.84545	179.04784	-7.12626	792.02554	160.33468	15.38787	698.61386	28.78425	41.09236	117.87203	298.29301	30.35882	955.05053	361.86446	-135.24753	471.04712	166.22680	176.68446	465.48257	373.74827	-132.84726	261.93748	97.36726	157.88839	227.32725	
466	4.650	259.28140	103.03704	653.49905	312.74561	-64.86525	643.08818	209.80313	51.42502	372.51744	152.74839	103.69750	343.55858	61.15831	80.47021	79.35579	73.34998	14.27104	102.97746	113.67449	47.90741	70.67230	425.51212	0.52693	414.83713	395.54425	-54.17679	364.77060	354.41006	-74.55361	100.88807	394.07783	-34.47320	88.99678	335.63994	-7.28748	106.86068	305.28348	-48.57019	130.36794	188.18377	-51.84988	690.09719	172.23833	10.33639	980.04188	187.70735	-7.12799	791.18815	169.20407	15.41683	697.25239	30.88752	41.33833	119.91234	307.27124	30.19894	954.16993	371.59916	-131.86032	468.40106	173.58171	177.04521	464.77822	385.88426	-128.42409	258.09730	101.68378	158.03671	227.83073	
467	4.660	268.17201	103.81015	652.72336	322.34162	-63.81068	642.25737	217.98769	51.87555	371.05479	160.33835	103.81489	342.76957	62.80770	80.73709	80.87880	75.43437	14.57821	104.18218	114.95956	48.05391	70.91515	432.20924	4.87726	412.16185	403.15354	-50.35429	361.93189	366.90522	-69.73784	96.64714	406.18795	-28.99361	85.99707	346.92443	-2.78123	102.88818	316.66340	-44.70125	125.45954	197.56950	-51.52729	688.73953	181.28714	9.80154	979.15790	196.63078	-6.97404	790.27136	178.36097	15.67088	695.84455	33.44758	41.69552	122.17133	316.29491	29.97392	953.37086	381.05766	-128.59654	465.50468	181.63074	177.36186	463.80446	396.49693	-124.17451	254.11821	106.87672	158.17068	228.25041	
468	4.670	277.42471	104.60584	651.73554	332.09329	-62.81273	641.57193	227.12290	52.26559	369.33417	168.90009	103.84950	341.66168	64.92762	81.06692	82.57285	77.89331	14.92195	105.50548	116.53130	48.16389	71.18065	438.53739	8.89178	409.04982	410.12413	-46.85770	358.83281	377.02324	-65.23278	92.60400	416.02893	-23.99133	83.08517	356.15992	1.47083	99.12987	325.98259	-40.94293	120.93336	207.15196	-50.99771	687.54840	190.35856	9.17944	978.20029	205.80501	-6.63584	789.28443	187.77262	16.16517	694.41221	36.55092	42.17834	124.65635	325.35335	29.69887	952.66458	390.22233	-125.54222	462.46723	190.38494	177.62050	462.53778	405.56876	-120.22068	250.11781	113.02844	158.29199	228.55535	
469	4.680	287.00695	105.40576	650.52903	341.96074	-61.88790	641.06705	237.22998	52.58620	367.34826	178.45701	103.79547	340.21715	67.60567	81.45837	84.44647	80.80016	15.30191	106.95878	118.45659	48.23499	71.48355	444.51406	12.46670	405.64804	416.48552	-43.78188	355.61045	384.82950	-61.19953	88.85411	423.67186	-19.61844	80.34591	363.40464	5.31737	95.67168	333.29811	-37.45402	116.88192	216.88983	-50.25413	686.57000	199.43692	8.49877	977.18143	215.20775	-6.08988	788.24395	197.39951	16.90704	692.98378	40.28835	42.79165	127.37200	334.43443	29.39253	952.06203	399.06638	-122.78593	459.40568	199.84419	177.80539	460.96998	413.14303	-116.68304	246.21664	120.20273	158.39856	228.72306	
